<svg xmlns="http://www.w3.org/2000/svg" viewBox="0 0 21 21.01"><defs><style>.cls-1{fill:#398d00;}</style></defs><title>user_icon</title><g id="圖層_2" data-name="圖層 2"><g id="圖層_1-2" data-name="圖層 1"><path class="cls-1" d="M7.05,10.22a4.24,4.24,0,0,1-.67-1.7,4.13,4.13,0,0,1,.25-2.2,4,4,0,0,1,.8-1.27c.14-.14.27-.31.51-.25a.42.42,0,0,1,.22.72,6.13,6.13,0,0,0-.57.77A3,3,0,0,0,7.18,8a3.27,3.27,0,0,0,.88,2.1,3.3,3.3,0,0,0,3.72.81,3.2,3.2,0,0,0,2-2.29,3.14,3.14,0,0,0-.6-2.8,3.26,3.26,0,0,0-2.6-1.3.42.42,0,1,1,0-.84,4.13,4.13,0,0,1,2.19.63,4,4,0,0,1,1.61,1.87,4.14,4.14,0,0,1,.28,2.48A4.71,4.71,0,0,1,14,10.23l.49.27a7.53,7.53,0,0,1,2.87,3c.09.17.18.34.26.52a.42.42,0,0,1-.21.57.41.41,0,0,1-.57-.22,6.72,6.72,0,0,0-2.25-2.78c-.34-.24-.71-.44-1.07-.65a.26.26,0,0,0-.2.05,4.19,4.19,0,0,1-1.44.84,4.08,4.08,0,0,1-2.9-.08A3.84,3.84,0,0,1,7.73,11a.19.19,0,0,0-.24,0A7,7,0,0,0,5.15,12.8a6.76,6.76,0,0,0-1.34,2.71,6,6,0,0,0-.19,1.63.47.47,0,0,0,.11.25,9.43,9.43,0,0,0,4.13,2.4,9.27,9.27,0,0,0,2.91.37,9.71,9.71,0,0,0,4.12-1.05,9.42,9.42,0,0,0,2.43-1.77,9.58,9.58,0,0,0,2.22-3.42,10,10,0,0,0,.58-2.51A9.54,9.54,0,0,0,20,8.64a9.43,9.43,0,0,0-1.83-4,9.49,9.49,0,0,0-3.43-2.79A9.53,9.53,0,0,0,8.85,1a9.55,9.55,0,0,0-4,1.68,9.41,9.41,0,0,0-2.72,3A9.63,9.63,0,0,0,1,8.64a10.07,10.07,0,0,0-.16,2.45,10.22,10.22,0,0,0,.55,2.68.41.41,0,0,1-.26.55A.41.41,0,0,1,.61,14,10.59,10.59,0,0,1,.06,9.37,10.35,10.35,0,0,1,1.69,4.78,10.5,10.5,0,0,1,4.55,1.85,10.3,10.3,0,0,1,7.85.34a10.15,10.15,0,0,1,3.6-.29,10.5,10.5,0,0,1,7.84,4.7A10.1,10.1,0,0,1,20.83,8.6a11,11,0,0,1,.11,3.08,10.63,10.63,0,0,1-1,3.49,10.55,10.55,0,0,1-2.25,3,10.34,10.34,0,0,1-3.47,2.16,10.65,10.65,0,0,1-5.82.45,10.21,10.21,0,0,1-3.06-1.15A10.9,10.9,0,0,1,2.94,17.8a.69.69,0,0,1-.18-.47,7.74,7.74,0,0,1,1.15-4.24,7.53,7.53,0,0,1,2.7-2.62Z"/></g></g></svg>